{"title":"The SpongeBob Movie Sponge Out of Water 2015.Cam.XviD-FANTA","uid":11707328,"size":1317911181,"categoryP":"video","categoryS":"movies","magnet":"?xt=urn:btih:e458c212bb5aca02537892daa0dbbe97800b16bd&amp;dn=The+SpongeBob+Movie+Sponge+Out+of+Water+2015.Cam.XviD-FANTA&amp;tr=udp%3A%2F%2Ftracker.openbittorrent.com%3A80&amp;tr=udp%3A%2F%2Fopen.demonii.com%3A1337&amp;tr=udp%3A%2F%2Ftracker.coppersurfer.tk%3A6969&amp;tr=udp%3A%2F%2Fexodus.desync.com%3A6969","seeders":563,"leechers":95,"uploader":"xxxlavalxxx","files":6,"time":1424182701,"description":"[img]http://i.imgur.com/hnRwlD3.jpg[/img]\n &lt;a href=&quot;\nhttp://www.imdb.com/title/tt2279373/&quot; rel=&quot;nofollow&quot; target=&quot;_NEW&quot;&gt;\nhttp://www.imdb.com/title/tt2279373/&lt;/a&gt;\n\n\nWhen a diabolical pirate above the sea steals the secret Krabby Patty formula, SpongeBob and his nemesis Plankton must team up in order to get it back.\n\nDirector: Paul Tibbitt\nWriters: Glenn Berger (screenplay), Jonathan Aibel (screenplay)\nStars: Tom Kenny, Antonio Banderas, Bill Fagerbakke\nGenres: Animation | Adventure | Comedy | Family\nCountry: USA\nLanguage: English\n\n\nFormat                                   : AVI\nFormat/Info                              : Audio Video Interleave\nFile size                                : 1.21 GiB\nDuration                                 : 1h 23mn\nOverall bit rate                         : 2 092 Kbps\nWriting application                      : AVI-Mux GUI 1.17.8.3, Feb 16 201019:42:50\nWriting library                          : VirtualDub build 32842/release\n\nVideo\nID                                       : 0\nFormat                                   : MPEG-4 Visual\nFormat profile                           : Advanced Simple@L5\nFormat settings, BVOP                    : 2\nFormat settings, QPel                    : No\nFormat settings, GMC                     : No warppoints\nFormat settings, Matrix                  : Default (H.263)\nMuxing mode                              : Packed bitstream\nCodec ID                                 : XVID\nCodec ID/Hint                            : XviD\nDuration                                 : 1h 23mn\nBit rate                                 : 1 891 Kbps\nWidth                                    : 640 pixels\nHeight                                   : 352 pixels\nDisplay aspect ratio                     : 16:9\nFrame rate                               : 23.976 fps\nColor space                              : YUV\nChroma subsampling                       : 4:2:0\nBit depth                                : 8 bits\nScan type                                : Progressive\nCompression mode                         : Lossy\nBits/(Pixel*Frame)                       : 0.350\nStream size                              : 1.10 GiB (90%)\nWriting library                          : XviD 64\n\nAudio\nID                                       : 1\nFormat                                   : AC-3\nFormat/Info                              : Audio Coding 3\nMode extension                           : CM (complete main)\nFormat settings, Endianness              : Big\nCodec ID                                 : 2000\nDuration                                 : 1h 23mn\nBit rate mode                            : Constant\nBit rate                                 : 192 Kbps\nChannel(s)                               : 2 channels\nChannel positions                        : Front: L R\nSampling rate                            : 44.1 KHz\nBit depth                                : 16 bits\nCompression mode                         : Lossy\nStream size                              : 114 MiB (9%)\nAlignment                                : Split accross interleaves\nInterleave, duration                     : 42 ms (1.00 video frame)\nInterleave, preload duration             : 500 ms\n\n &lt;a href=&quot;\nhttp://i.imgur.com/T85bkhM.jpg&quot; rel=&quot;nofollow&quot; target=&quot;_NEW&quot;&gt;\nhttp://i.imgur.com/T85bkhM.jpg&lt;/a&gt; &lt;a href=&quot;\nhttp://i.imgur.com/qjWz6AG.jpg&quot; rel=&quot;nofollow&quot; target=&quot;_NEW&quot;&gt;\nhttp://i.imgur.com/qjWz6AG.jpg&lt;/a&gt; &lt;a href=&quot;\nhttp://i.imgur.com/lKf1N3q.jpg&quot; rel=&quot;nofollow&quot; target=&quot;_NEW&quot;&gt;\nhttp://i.imgur.com/lKf1N3q.jpg&lt;/a&gt; &lt;a href=&quot;\nhttp://i.imgur.com/mPd346V.jpg&quot; rel=&quot;nofollow&quot; target=&quot;_NEW&quot;&gt;\nhttp://i.imgur.com/mPd346V.jpg&lt;/a&gt; &lt;a href=&quot;\nhttp://i.imgur.com/VmmxYTH.jpg&quot; rel=&quot;nofollow&quot; target=&quot;_NEW&quot;&gt;\nhttp://i.imgur.com/VmmxYTH.jpg&lt;/a&gt; &lt;a href=&quot;\nhttp://i.imgur.com/FcXu6DV.jpg&quot; rel=&quot;nofollow&quot; target=&quot;_NEW&quot;&gt;\nhttp://i.imgur.com/FcXu6DV.jpg&lt;/a&gt; &lt;a href=&quot;\nhttp://i.imgur.com/firJxP0.jpg&quot; rel=&quot;nofollow&quot; target=&quot;_NEW&quot;&gt;\nhttp://i.imgur.com/firJxP0.jpg&lt;/a&gt; &lt;a href=&quot;\nhttp://i.imgur.com/BiHP9uA.jpg&quot; rel=&quot;nofollow&quot; target=&quot;_NEW&quot;&gt;\nhttp://i.imgur.com/BiHP9uA.jpg&lt;/a&gt; &lt;a href=&quot;\nhttp://i.imgur.com/IcrmwnU.jpg&quot; rel=&quot;nofollow&quot; target=&quot;_NEW&quot;&gt;\nhttp://i.imgur.com/IcrmwnU.jpg&lt;/a&gt; &lt;a href=&quot;\nhttp://i.imgur.com/qXRcUVC.jpg&quot; rel=&quot;nofollow&quot; target=&quot;_NEW&quot;&gt;\nhttp://i.imgur.com/qXRcUVC.jpg&lt;/a&gt;","torrent":{"xt":"urn:btih:e458c212bb5aca02537892daa0dbbe97800b16bd","amp;dn":"The+SpongeBob+Movie+Sponge+Out+of+Water+2015.Cam.XviD-FANTA","amp;tr":["udp%3A%2F%2Ftracker.openbittorrent.com%3A80","udp%3A%2F%2Fopen.demonii.com%3A1337","udp%3A%2F%2Ftracker.coppersurfer.tk%3A6969","udp%3A%2F%2Fexodus.desync.com%3A6969"],"infoHash":"e458c212bb5aca02537892daa0dbbe97800b16bd","infoHashBuffer":{"type":"Buffer","data":[228,88,194,18,187,90,202,2,83,120,146,218,160,219,190,151,128,11,22,189]},"announce":[],"urlList":[]}}